<?xml version="1.0" standalone="no"?>
<!DOCTYPE svg PUBLIC "-//W3C//DTD SVG 20010904//EN"
 "http://www.w3.org/TR/2001/REC-SVG-20010904/DTD/svg10.dtd">
<svg version="1.0" xmlns="http://www.w3.org/2000/svg"
 width="303.000000pt" height="303.000000pt" viewBox="0 0 303.000000 303.000000"
 preserveAspectRatio="xMidYMid meet">
<metadata>
Created by potrace 1.11, written by Peter Selinger 2001-2013
</metadata>
<g transform="translate(0.000000,303.000000) scale(0.100000,-0.100000)"
fill="#000000" stroke="none">
<path d="M275 3017 c-17 -13 -18 -62 -19 -1236 l-1 -1223 30 -25 c27 -23 35
-25 102 -21 l73 5 0 -242 c0 -218 2 -243 18 -258 15 -13 50 -16 233 -17 197 0
217 1 237 19 22 18 22 20 22 409 l0 390 23 6 c29 7 135 75 210 135 49 39 92
86 215 236 9 11 35 57 59 102 l42 82 11 -34 c16 -49 112 -198 173 -268 152
-177 428 -322 665 -350 l92 -11 0 -81 c0 -115 4 -118 159 -113 97 2 124 6 138
20 15 16 17 49 15 375 -1 197 -2 739 -2 1204 0 582 -4 856 -11 878 l-11 31
-138 0 -138 0 -11 -31 c-6 -18 -11 -60 -11 -95 0 -72 13 -63 -125 -84 -92 -14
-216 -50 -293 -86 -133 -61 -288 -192 -385 -324 -26 -36 -53 -73 -60 -82 -7
-10 -26 -45 -43 -78 -16 -33 -32 -60 -36 -60 -4 0 -10 10 -13 21 -4 12 -32 64
-63 116 -108 185 -283 336 -484 417 -51 21 -102 42 -113 47 -35 16 -158 39
-212 39 l-53 0 0 78 c0 119 -3 122 -154 122 -86 0 -128 -4 -141 -13z m176
-276 c1 -91 2 -604 3 -1138 l2 -973 -42 0 -42 0 -2 893 c-1 490 -2 901 -3 912
0 11 0 124 1 250 l2 231 40 -4 40 -4 1 -167z m2200 -3 c1 -101 2 -614 3 -1140
l2 -958 -37 0 c-36 0 -37 1 -44 46 -4 26 -6 169 -5 318 1 149 2 530 1 846 -1
316 -1 686 -1 823 l0 247 40 0 40 0 1 -182z m-1973 -33 c157 -15 316 -90 474
-221 123 -103 227 -264 278 -430 31 -102 37 -113 64 -126 45 -20 69 8 95 106
72 270 268 496 534 614 48 21 191 56 273 67 l51 6 6 -122 c4 -67 7 -143 7
-169 l0 -46 -76 -19 c-223 -55 -407 -250 -445 -468 -18 -107 -7 -258 24 -335
29 -70 97 -170 149 -218 92 -86 247 -164 326 -164 l25 0 -6 -82 c-4 -46 -7
-123 -7 -172 l0 -89 -70 7 c-181 18 -325 83 -507 229 -126 101 -229 264 -284
450 -25 84 -42 107 -79 107 -34 0 -56 -25 -64 -74 -15 -82 -71 -212 -127 -296
-93 -138 -224 -254 -379 -335 -99 -52 -90 -9 -90 -432 l0 -373 -133 0 -134 0
-6 468 c-6 381 -9 1227 -7 2000 0 132 0 132 23 128 12 -3 51 -8 85 -11z"/>
<path d="M905 1779 l0 -324 50 0 c95 1 200 76 251 180 35 73 41 186 13 260
-40 108 -146 190 -260 202 l-54 5 0 -323z"/>
</g>
</svg>
